<svg width="34" height="32" viewBox="0 0 34 32" fill="none" xmlns="http://www.w3.org/2000/svg">
<g id="Calendar">
<g id="Iconly/Light-Outline/Calendar">
<g id="Calendar_2">
<path id="Combined-Shape" fill-rule="evenodd" clip-rule="evenodd" d="M22.2161 1.33333C22.7853 1.33333 23.2473 1.78133 23.2473 2.33333L23.2479 3.46375C25.2556 3.59722 26.923 4.26406 28.1031 5.4108C29.3915 6.66547 30.0694 8.46947 30.0625 10.6335V22.7975C30.0625 27.2401 27.153 30.0001 22.4711 30.0001H10.8414C6.1595 30.0001 3.25 27.2015 3.25 22.6961V10.6308C3.25 6.44039 5.8447 3.75059 10.0764 3.4642L10.0773 2.33333C10.0773 1.78133 10.5393 1.33333 11.1085 1.33333C11.6778 1.33333 12.1398 1.78133 12.1398 2.33333L12.1394 3.43867H21.1841L21.1848 2.33333C21.1848 1.78133 21.6468 1.33333 22.2161 1.33333ZM28 13.2053H5.3125V22.6961C5.3125 26.1175 7.276 28.0001 10.8414 28.0001H22.4711C26.0365 28.0001 28 26.1521 28 22.7975L28 13.2053ZM22.7766 21.5951C23.3459 21.5951 23.8079 22.0431 23.8079 22.5951C23.8079 23.1471 23.3459 23.5951 22.7766 23.5951C22.2074 23.5951 21.7399 23.1471 21.7399 22.5951C21.7399 22.0431 22.195 21.5951 22.7643 21.5951H22.7766ZM16.6751 21.5951C17.2443 21.5951 17.7063 22.0431 17.7063 22.5951C17.7063 23.1471 17.2443 23.5951 16.6751 23.5951C16.1058 23.5951 15.6383 23.1471 15.6383 22.5951C15.6383 22.0431 16.0935 21.5951 16.6627 21.5951H16.6751ZM10.5607 21.5951C11.13 21.5951 11.592 22.0431 11.592 22.5951C11.592 23.1471 11.13 23.5951 10.5607 23.5951C9.99149 23.5951 9.52261 23.1471 9.52261 22.5951C9.52261 22.0431 9.97911 21.5951 10.5484 21.5951H10.5607ZM22.7766 16.4128C23.3459 16.4128 23.8079 16.8608 23.8079 17.4128C23.8079 17.9648 23.3459 18.4128 22.7766 18.4128C22.2074 18.4128 21.7399 17.9648 21.7399 17.4128C21.7399 16.8608 22.195 16.4128 22.7643 16.4128H22.7766ZM16.6751 16.4128C17.2443 16.4128 17.7063 16.8608 17.7063 17.4128C17.7063 17.9648 17.2443 18.4128 16.6751 18.4128C16.1058 18.4128 15.6383 17.9648 15.6383 17.4128C15.6383 16.8608 16.0935 16.4128 16.6627 16.4128H16.6751ZM10.5607 16.4128C11.13 16.4128 11.592 16.8608 11.592 17.4128C11.592 17.9648 11.13 18.4128 10.5607 18.4128C9.99149 18.4128 9.52261 17.9648 9.52261 17.4128C9.52261 16.8608 9.97911 16.4128 10.5484 16.4128H10.5607ZM21.1841 5.43867H12.1394L12.1398 6.72133C12.1398 7.27333 11.6778 7.72133 11.1085 7.72133C10.5393 7.72133 10.0773 7.27333 10.0773 6.72133L10.0766 5.46894C6.99624 5.71986 5.3125 7.53047 5.3125 10.6308V11.2053H28L28 10.6308C28.0055 8.98413 27.549 7.70413 26.6429 6.82413C25.8475 6.05054 24.6847 5.58853 23.2485 5.46958L23.2473 6.72133C23.2473 7.27333 22.7853 7.72133 22.2161 7.72133C21.6468 7.72133 21.1848 7.27333 21.1848 6.72133L21.1841 5.43867Z" fill="#542EBF"/>
</g>
</g>
</g>
</svg>
