<svg width="176" height="41" viewBox="0 0 176 41" fill="none" xmlns="http://www.w3.org/2000/svg">
<g id="Group 48095629">
<g id="Group 48095627">
<path id="Vector" d="M168.385 16.9831C171.747 16.2361 174.579 18.0104 175.375 20.2516C174.667 20.2516 173.959 20.4384 173.428 20.7186C172.455 19.2244 169.712 18.2905 166.969 20.0649C167.323 18.9442 167.766 17.917 168.385 16.9831Z" fill="#ED1E79"/>
<path id="Vector_2" d="M166.161 33.6189L164.315 39.2692L166.992 40.2434L168.838 34.5931L166.161 33.6189Z" fill="#FCEE21"/>
<path id="Vector_3" d="M147.58 23.3469L145.734 28.9973L148.411 29.9715L150.257 24.3211L147.58 23.3469Z" fill="#7585D8"/>
<path id="Vector_4" d="M25.4761 23.3469L23.6301 28.9973L26.3069 29.9715L28.1529 24.3211L25.4761 23.3469Z" fill="#E08755"/>
<path id="Vector_5" d="M135.47 11.0633C134.585 8.91543 132.373 7.70141 130.25 8.16834C130.073 7.32787 129.984 6.4874 129.807 5.64693C132.993 5.27338 136.001 7.32787 136.974 10.503C136.532 10.6898 136.001 10.8765 135.47 11.0633Z" fill="#009245"/>
<path id="Vector_6" d="M126.358 28.0162C125.031 26.4286 125.208 24.3741 126.004 23.3469C126.181 23.7204 126.446 24.0939 126.8 24.2807C126.358 25.2146 126.623 26.9889 128.216 27.9228C127.597 28.1095 126.977 28.1095 126.358 28.0162Z" fill="#ED1E79"/>
<path id="Vector_7" d="M43.0959 14.2952C42.6535 17.5996 39.999 19.611 37.787 19.611C38.082 18.8927 38.082 18.318 38.082 17.7433C39.8516 17.3123 41.6212 15.1572 40.8839 12.1402C41.7687 12.7148 42.506 13.4332 43.0959 14.2952Z" fill="#ED1E79"/>
<path id="Vector_8" d="M36.0174 1.07763C35.7962 2.72983 34.469 3.73553 33.363 3.73553C33.5104 3.37636 33.5104 3.08902 33.5104 2.80168C34.3953 2.58617 35.2801 1.50864 34.9114 0.000101018C35.3538 0.287441 35.7225 0.646617 36.0174 1.07763Z" fill="#ED1E79"/>
<path id="Vector_9" d="M25.2118 8.40492L24.5149 9.37079L25.5708 10.2195L26.2677 9.25365L25.2118 8.40492Z" fill="#FBB03B"/>
<path id="Vector_10" d="M9.19531 7.47118L6.81866 10.4885L9.17299 12.5542L11.5496 9.53692L9.19531 7.47118Z" fill="#C07ED8"/>
<path id="Vector_11" d="M152.535 -1.40991e-05L150.158 3.01727L152.512 5.08301L154.889 2.06572L152.535 -1.40991e-05Z" fill="#FBB03B"/>
<path id="Vector_12" d="M3.02418 31.7512L0.625 32.3967L1.33064 35.3184L3.72982 34.6729L3.02418 31.7512Z" fill="#FBB03B"/>
</g>
<g id="Group 48095628">
<path id="Star 1" d="M86.9575 8.25883C87.7661 7.54075 88.9839 7.54075 89.7925 8.25883C90.3549 8.75831 91.1387 8.92491 91.8556 8.69737C92.8864 8.37025 93.9989 8.86557 94.4455 9.85044C94.7561 10.5355 95.4044 11.0065 96.1519 11.0902C97.2266 11.2106 98.0415 12.1156 98.0489 13.197C98.054 13.9492 98.4547 14.6431 99.1035 15.0237C100.036 15.5708 100.413 16.729 99.9795 17.7199C99.6783 18.4091 99.7621 19.206 100.2 19.8176C100.83 20.6968 100.702 21.9079 99.9037 22.637C99.3482 23.1441 99.1005 23.9062 99.2519 24.643C99.4695 25.7023 98.8606 26.7569 97.8344 27.0981C97.1206 27.3355 96.5845 27.931 96.423 28.6656C96.191 29.7218 95.2058 30.4376 94.1295 30.332C93.3809 30.2585 92.6489 30.5844 92.2026 31.1899C91.561 32.0604 90.3698 32.3136 89.4296 31.7793C88.7757 31.4077 87.9743 31.4077 87.3204 31.7793C86.3802 32.3136 85.189 32.0604 84.5474 31.1899C84.1011 30.5844 83.3691 30.2585 82.6205 30.332C81.5442 30.4376 80.559 29.7218 80.327 28.6656C80.1655 27.931 79.6294 27.3355 78.9156 27.0981C77.8894 26.7569 77.2805 25.7023 77.4981 24.643C77.6495 23.9062 77.4018 23.1441 76.8463 22.637C76.0477 21.9079 75.9204 20.6968 76.55 19.8176C76.9879 19.206 77.0717 18.4091 76.7705 17.7199C76.3374 16.729 76.7137 15.5708 77.6465 15.0237C78.2953 14.6431 78.696 13.9492 78.7011 13.197C78.7085 12.1156 79.5234 11.2106 80.5981 11.0902C81.3456 11.0065 81.9939 10.5355 82.3045 9.85044C82.7511 8.86557 83.8636 8.37025 84.8944 8.69737C85.6113 8.92491 86.3951 8.75831 86.9575 8.25883Z" fill="#3E973E"/>
<path id="Vector_13" d="M95.0257 17.0085L87.2812 24.6551C87.0489 24.8845 86.7439 25 86.4389 25C86.1339 25 85.8289 24.8845 85.5966 24.6551L81.7245 20.8318C81.2585 20.3719 81.2585 19.6283 81.7245 19.1684C82.1903 18.7083 82.9431 18.7083 83.4091 19.1684L86.4389 22.16L93.341 15.3451C93.8068 14.885 94.5597 14.885 95.0257 15.3451C95.4914 15.805 95.4914 16.5484 95.0257 17.0085Z" fill="#FAFAFA"/>
</g>
</g>
</svg>
