<svg width="27" height="26" viewBox="0 0 27 26" fill="none" xmlns="http://www.w3.org/2000/svg">
<g id="Time Square">
<g id="Iconly/Light-Outline/Calendar">
<g id="Calendar">
<path id="Combined-Shape" fill-rule="evenodd" clip-rule="evenodd" d="M17.3545 1C17.8003 1 18.1622 1.36184 18.1622 1.80769L18.1627 2.72071C19.7351 2.82852 21.041 3.36712 21.9653 4.29333C22.9744 5.30671 23.5053 6.76378 23.5 8.51162V18.3364C23.5 21.9246 21.2212 24.1539 17.5542 24.1539H8.44567C4.77876 24.1539 2.5 21.8934 2.5 18.2545V8.50946C2.5 5.12491 4.53221 2.95239 7.84656 2.72108L7.84723 1.80769C7.84723 1.36184 8.20907 1 8.65491 1C9.10076 1 9.4626 1.36184 9.4626 1.80769L9.46228 2.70046H16.5463L16.5468 1.80769C16.5468 1.36184 16.9086 1 17.3545 1ZM21.8845 10.5889H4.11538V18.2545C4.11538 21.0179 5.65322 22.5385 8.44567 22.5385H17.5542C20.3467 22.5385 21.8846 21.0459 21.8846 18.3364L21.8845 10.5889ZM17.7935 17.3652C18.2394 17.3652 18.6012 17.727 18.6012 18.1729C18.6012 18.6187 18.2394 18.9806 17.7935 18.9806C17.3477 18.9806 16.9815 18.6187 16.9815 18.1729C16.9815 17.727 17.338 17.3652 17.7838 17.3652H17.7935ZM13.0147 17.3652C13.4606 17.3652 13.8224 17.727 13.8224 18.1729C13.8224 18.6187 13.4606 18.9806 13.0147 18.9806C12.5689 18.9806 12.2027 18.6187 12.2027 18.1729C12.2027 17.727 12.5592 17.3652 13.005 17.3652H13.0147ZM8.22587 17.3652C8.67171 17.3652 9.03356 17.727 9.03356 18.1729C9.03356 18.6187 8.67171 18.9806 8.22587 18.9806C7.78003 18.9806 7.4128 18.6187 7.4128 18.1729C7.4128 17.727 7.77033 17.3652 8.21618 17.3652H8.22587ZM17.7935 13.1795C18.2394 13.1795 18.6012 13.5414 18.6012 13.9872C18.6012 14.4331 18.2394 14.7949 17.7935 14.7949C17.3477 14.7949 16.9815 14.4331 16.9815 13.9872C16.9815 13.5414 17.338 13.1795 17.7838 13.1795H17.7935ZM13.0147 13.1795C13.4606 13.1795 13.8224 13.5414 13.8224 13.9872C13.8224 14.4331 13.4606 14.7949 13.0147 14.7949C12.5689 14.7949 12.2027 14.4331 12.2027 13.9872C12.2027 13.5414 12.5592 13.1795 13.005 13.1795H13.0147ZM8.22587 13.1795C8.67171 13.1795 9.03356 13.5414 9.03356 13.9872C9.03356 14.4331 8.67171 14.7949 8.22587 14.7949C7.78003 14.7949 7.4128 14.4331 7.4128 13.9872C7.4128 13.5414 7.77033 13.1795 8.21618 13.1795H8.22587ZM16.5463 4.31583H9.46228L9.4626 5.35183C9.4626 5.79767 9.10076 6.15952 8.65491 6.15952C8.20907 6.15952 7.84723 5.79767 7.84723 5.35183L7.84665 4.34028C5.43411 4.54295 4.11538 6.00536 4.11538 8.50946V8.97351H21.8845L21.8846 8.50946C21.8888 7.17947 21.5313 6.14563 20.8216 5.43486C20.1986 4.81004 19.2879 4.43688 18.1631 4.3408L18.1622 5.35183C18.1622 5.79767 17.8003 6.15952 17.3545 6.15952C16.9086 6.15952 16.5468 5.79767 16.5468 5.35183L16.5463 4.31583Z" fill="black"/>
</g>
</g>
</g>
</svg>
