<svg width="27" height="26" viewBox="0 0 27 26" fill="none" xmlns="http://www.w3.org/2000/svg">
  <path fill-rule="evenodd" clip-rule="evenodd" d="M18.1951 2.16667C21.8665 2.16667 24.3333 4.74283 24.3333 8.57567V17.4243C24.3333 21.2572 21.8665 23.8333 18.194 23.8333H8.80371C5.13229 23.8333 2.66663 21.2572 2.66663 17.4243V8.57567C2.66663 4.74283 5.13229 2.16667 8.80371 2.16667H18.1951ZM18.1951 3.79167H8.80371C6.06288 3.79167 4.29163 5.66908 4.29163 8.57567V17.4243C4.29163 20.3309 6.06288 22.2083 8.80371 22.2083H18.194C20.936 22.2083 22.7083 20.3309 22.7083 17.4243V8.57567C22.7083 5.66908 20.937 3.79167 18.1951 3.79167ZM13.499 7.45723C13.9475 7.45723 14.3115 7.82123 14.3115 8.26973V12.5337L17.5896 14.487C17.9742 14.7177 18.101 15.2161 17.8713 15.6017C17.7186 15.8563 17.4488 15.9982 17.1726 15.9982C17.0306 15.9982 16.8876 15.9614 16.7566 15.8845L13.083 13.6929C12.8382 13.5456 12.6865 13.2802 12.6865 12.9952V8.26973C12.6865 7.82123 13.0505 7.45723 13.499 7.45723Z" fill="black"/>
</svg>